<svg width="24" height="24" viewBox="0 0 24 24" fill="none" xmlns="http://www.w3.org/2000/svg">
<path fill-rule="evenodd" clip-rule="evenodd" d="M9.80005 2.00089C8.52979 2.00089 7.50005 3.03294 7.50005 4.30605L7.50004 6.0116H5.8C4.52974 6.0116 3.5 7.04134 3.5 8.3116V19.6991C3.5 20.9693 4.52974 21.9991 5.8 21.9991H14.1669C15.4372 21.9991 16.4669 20.9693 16.4669 19.6991V18.0368H18.2C19.4703 18.0368 20.5 17.0048 20.5 15.7316L20.5 4.30605C20.5 3.03294 19.4703 2.00089 18.2 2.00089H9.80005ZM14.8669 18.0368H9.8C8.52975 18.0368 7.5 17.0048 7.5 15.7316L7.50003 7.6116H5.8C5.4134 7.6116 5.1 7.925 5.1 8.3116V19.6991C5.1 20.0857 5.4134 20.3991 5.8 20.3991H14.1669C14.5535 20.3991 14.8669 20.0857 14.8669 19.6991V18.0368ZM9.10005 4.30605C9.10005 3.91858 9.41345 3.60448 9.80005 3.60448H18.2C18.5866 3.60448 18.9 3.91858 18.9 4.30605L18.9 15.7316C18.9 16.1191 18.5866 16.4332 18.2 16.4332H9.8C9.4134 16.4332 9.1 16.1191 9.1 15.7316L9.10005 4.30605Z" fill="#46464A"/>
</svg>
