<svg width="16" height="16" viewBox="0 0 16 16" fill="none" xmlns="http://www.w3.org/2000/svg">
<path fill-rule="evenodd" clip-rule="evenodd" d="M15.2095 5.48329C16.1207 4.57207 16.1207 3.09468 15.2095 2.18346L14.0309 1.00495C13.1197 0.0937237 11.6423 0.0937231 10.7311 1.00495L1.48474 10.2513C1.09732 10.6387 0.858588 11.1501 0.810373 11.6959L0.608636 13.9796C0.526478 14.9096 1.30479 15.6879 2.23481 15.6058L4.51849 15.404C5.06426 15.3558 5.57566 15.1171 5.96308 14.7297L15.2095 5.48329ZM14.2666 3.12627C14.6572 3.51679 14.6572 4.14996 14.2667 4.54048L13.5047 5.3024L10.912 2.70968L11.6739 1.94776C12.0644 1.55723 12.6976 1.55723 13.0881 1.94776L14.2666 3.12627ZM9.96919 3.65249L12.5619 6.24521L5.02027 13.7869C4.85424 13.9529 4.63506 14.0552 4.40116 14.0759L2.11748 14.2776C2.01415 14.2867 1.92767 14.2003 1.9368 14.0969L2.13853 11.8132C2.1592 11.5793 2.26151 11.3602 2.42755 11.1941L9.96919 3.65249Z" fill="#46464A"/>
</svg>
