<svg width="20" height="20" viewBox="0 0 20 20" fill="none" xmlns="http://www.w3.org/2000/svg">
<path fill-rule="evenodd" clip-rule="evenodd" d="M17.2219 10.0001C17.2219 13.1811 15.1684 16.025 12.2282 16.9145C12.1615 16.9348 12.0934 16.9445 12.0268 16.9445C11.7289 16.9445 11.4532 16.7511 11.3629 16.4509C11.2511 16.0843 11.4587 15.6968 11.8261 15.5851C14.1851 14.8715 15.833 12.5744 15.833 10.0001C15.833 7.58562 14.4233 5.62432 12.2879 4.82975L12.9816 6.21711C13.1539 6.55993 13.0143 6.97747 12.6712 7.14923C12.5719 7.1988 12.4657 7.22254 12.3615 7.22254C12.1066 7.22254 11.8615 7.0822 11.7393 6.83852L10.3504 4.06101C10.1789 3.71818 10.3184 3.30065 10.6615 3.12959L13.4393 1.74013C13.7837 1.56837 14.1997 1.70801 14.3705 2.05084C14.5428 2.39366 14.4032 2.8112 14.0601 2.98226L12.8969 3.56388C15.483 4.59445 17.2219 7.07173 17.2219 10.0001ZM9.89342 16.8712L7.11565 18.26C7.01634 18.3096 6.91009 18.3333 6.80592 18.3333C6.55106 18.3333 6.30592 18.193 6.1837 17.9493C6.01217 17.6064 6.15176 17.1889 6.49481 17.0178L7.65662 16.4369C5.0719 15.4071 3.33301 12.9298 3.33301 10.0001C3.33301 6.81967 5.38648 3.97652 8.32606 3.0856C8.69342 2.97458 9.08092 3.18195 9.19204 3.54852C9.30384 3.91578 9.0962 4.30329 8.72954 4.41501C6.36981 5.12998 4.7219 7.42642 4.7219 10.0001C4.7219 12.4166 6.13231 14.3786 8.26704 15.1718L7.57259 13.783C7.40106 13.4395 7.54065 13.0226 7.8837 12.8509C8.22745 12.6791 8.64412 12.8195 8.81495 13.1616L10.2038 15.9398C10.3761 16.2826 10.2365 16.6995 9.89342 16.8712Z" fill="#46464A"/>
</svg>
