<svg width="16" height="18" viewBox="0 0 16 18" fill="none" xmlns="http://www.w3.org/2000/svg">
<path fill-rule="evenodd" clip-rule="evenodd" d="M8.00004 1.96686C7.56911 1.96686 7.13981 1.97375 6.71225 1.98743C6.15102 2.00538 5.69507 2.47706 5.69507 3.0726V3.09862C6.4577 3.05354 7.22624 3.03069 8.00004 3.03069C8.77384 3.03069 9.54237 3.05354 10.305 3.09862V3.0726C10.305 2.47706 9.84906 2.00538 9.28783 1.98743C8.86027 1.97375 8.43097 1.96686 8.00004 1.96686ZM11.6052 3.19742V3.0726C11.6052 1.80942 10.6259 0.729335 9.3294 0.68786C8.88799 0.673739 8.44483 0.666626 8.00004 0.666626C7.55524 0.666626 7.11209 0.673739 6.67068 0.68786C5.37413 0.729335 4.39484 1.80942 4.39484 3.0726V3.19742C3.65954 3.26576 2.9302 3.35481 2.20741 3.46396C1.93329 3.50536 1.6601 3.54965 1.38789 3.5968C1.03411 3.65809 0.796996 3.99456 0.858279 4.34835C0.919562 4.70213 1.25604 4.93924 1.60982 4.87796C1.64335 4.87215 1.67689 4.86639 1.71045 4.86067L2.49778 15.096C2.59489 16.3584 3.64761 17.3333 4.91381 17.3333H11.0863C12.3525 17.3333 13.4052 16.3584 13.5023 15.096L14.2896 4.86067C14.3232 4.86639 14.3567 4.87215 14.3903 4.87796C14.744 4.93924 15.0805 4.70213 15.1418 4.34835C15.2031 3.99456 14.966 3.65809 14.6122 3.5968C14.34 3.54965 14.0668 3.50536 13.7927 3.46396C13.0699 3.35481 12.3405 3.26576 11.6052 3.19742ZM13.0007 4.6643C12.308 4.57119 11.6093 4.49715 10.905 4.44273C9.94655 4.36866 8.97776 4.33093 8.00004 4.33093C7.02231 4.33093 6.05353 4.36866 5.09505 4.44273C4.39078 4.49715 3.69205 4.57119 2.99942 4.6643L3.79418 14.9962C3.83919 15.5813 4.32703 16.0331 4.91381 16.0331H11.0863C11.673 16.0331 12.1609 15.5813 12.2059 14.9962L13.0007 4.6643ZM5.81557 5.98625C6.17435 5.97246 6.47639 6.25212 6.49019 6.61091L6.76297 13.7031C6.77677 14.0619 6.4971 14.3639 6.13832 14.3777C5.77953 14.3915 5.47749 14.1119 5.46369 13.7531L5.19092 6.66088C5.17712 6.30209 5.45678 6.00005 5.81557 5.98625ZM10.1845 5.98625C10.5433 6.00005 10.823 6.30209 10.8092 6.66088L10.5364 13.7531C10.5226 14.1119 10.2205 14.3915 9.86176 14.3777C9.50297 14.3639 9.22331 14.0619 9.23711 13.7031L9.50988 6.61091C9.52368 6.25212 9.82572 5.97246 10.1845 5.98625Z" fill="#46464A"/>
</svg>
