<svg width="12" height="12" viewBox="0 0 12 12" fill="none" xmlns="http://www.w3.org/2000/svg">
<path d="M0.405742 0.405586C0.12912 0.682208 0.12912 1.1307 0.405742 1.40732L4.99841 6.00002L0.405708 10.5927C0.129087 10.8694 0.129087 11.3179 0.405708 11.5945C0.68233 11.8711 1.13082 11.8711 1.40744 11.5945L6.00014 7.00176L10.5918 11.5934C10.8684 11.87 11.3169 11.87 11.5935 11.5934C11.8702 11.3168 11.8702 10.8683 11.5935 10.5917L7.00188 6.00002L11.5935 1.40837C11.8702 1.13175 11.8702 0.683254 11.5935 0.406632C11.3169 0.130011 10.8684 0.130011 10.5918 0.406632L6.00014 4.99829L1.40748 0.405586C1.13086 0.128965 0.682363 0.128965 0.405742 0.405586Z" fill="#46464A"/>
</svg>
